<?xml version="1.0" encoding="UTF-8"?>
<!DOCTYPE svg PUBLIC "-//W3C//DTD SVG 1.1//EN" "http://www.w3.org/Graphics/SVG/1.1/DTD/svg11.dtd">
<!-- Creator: CorelDRAW Home & Student X6 -->
<svg xmlns="http://www.w3.org/2000/svg" xml:space="preserve" width="210mm" height="297mm" version="1.1" style="shape-rendering:geometricPrecision; text-rendering:geometricPrecision; image-rendering:optimizeQuality; fill-rule:evenodd; clip-rule:evenodd"
viewBox="0 0 21000 29700"
 xmlns:xlink="http://www.w3.org/1999/xlink"
 enable-background="new 0 0 63 45.75">
 <defs>
  <style type="text/css">
   <![CDATA[
    .fil7 {fill:black}
    .fil3 {fill:#BD8437}
    .fil2 {fill:#DDAF64}
    .fil0 {fill:#E7CD8B}
    .fil5 {fill:#EDB348}
    .fil4 {fill:#F0E0C3}
    .fil1 {fill:#F5E1A3}
    .fil6 {fill:black;fill-opacity:0.282353}
   ]]>
  </style>
 </defs>
 <g id="Warstwa_x0020_1">
  <metadata id="CorelCorpID_0Corel-Layer"/>
  <g id="_214779688">
   <path class="fil0" d="M13822 9887c-372,-155 -803,-283 -1292,-384 -473,-116 -962,-194 -1466,-233 -527,-39 -888,-31 -1082,23 -450,132 -1086,822 -1909,2072 -171,271 -481,784 -931,1536 -186,302 -400,698 -640,1187l-35 35 -23 0 -70 23 -23 -58 12 -70c77,-70 252,-337 524,-803 442,-768 768,-1315 978,-1641 954,-1528 1726,-2374 2316,-2537l338 12c209,-8 566,31 1071,116l884 140c124,16 279,78 465,186 543,202 873,322 989,361 465,163 714,306 745,431 8,15 4,31 -12,47 -8,155 -380,725 -1117,1711 -760,1001 -1447,1862 -2060,2583 -465,559 -764,854 -896,884l-23 -70c240,-210 539,-559 896,-1048 396,-574 823,-1098 1280,-1571 551,-535 970,-1071 1257,-1606 303,-489 442,-795 419,-919 -32,-101 -230,-237 -595,-407l0 0z"/>
   <g>
    <path class="fil1" d="M13298 10911c31,-171 -19,-334 -151,-489 -155,-171 -396,-299 -721,-384 -334,-85 -884,-109 -1653,-70 -753,39 -1164,101 -1234,186 -31,31 -124,109 -279,233 -124,93 -206,175 -245,244l-151 256c-287,450 -795,1199 -1524,2246 -109,171 -187,303 -233,396 -78,163 -78,272 0,326 147,116 632,345 1455,687 908,388 1470,555 1688,500 217,-47 438,-201 663,-465 62,-77 225,-306 489,-687 93,-132 435,-640 1024,-1525 559,-846 850,-1331 873,-1455l0 0zm1117 -617c23,124 -116,431 -419,919 -287,535 -706,1071 -1257,1606 -458,473 -884,997 -1280,1571 -357,489 -656,838 -896,1048l-35 47 -46 -23c-388,-155 -908,-314 -1560,-477l-698 -174c-233,-77 -376,-124 -431,-140 -178,-116 -446,-244 -803,-384 -186,-93 -314,-147 -384,-163l-47 12c-47,7 -77,4 -93,-12l35 -35c241,-489 454,-885 640,-1187 450,-753 760,-1265 931,-1536 822,-1249 1459,-1940 1909,-2072 194,-54 555,-62 1082,-23 504,39 993,116 1466,233 489,101 919,229 1292,384 365,170 563,306 594,407l0 0z"/>
    <path class="fil1" d="M12426 10038c326,85 566,213 721,384 132,155 183,318 151,489 -23,124 -314,609 -873,1455 -590,885 -931,1393 -1024,1525 -264,380 -426,609 -489,687 -225,264 -446,419 -663,465 -217,54 -780,-112 -1688,-500 -823,-341 -1307,-570 -1455,-687 -78,-54 -78,-163 0,-326 46,-93 124,-225 233,-396 729,-1047 1237,-1796 1524,-2246l151 -256c39,-70 120,-151 245,-244 155,-124 248,-202 279,-233 70,-85 481,-147 1234,-186 768,-38 1319,-15 1653,70l0 0z"/>
   </g>
   <path class="fil2" d="M9889 12668c116,-62 225,-105 326,-128 117,-46 244,-77 384,-93 318,-54 524,4 617,175 47,62 70,116 70,163 -117,-70 -268,-82 -454,-35 -186,31 -396,120 -629,268 -202,124 -330,268 -384,430 -93,217 -101,392 -23,524l23 35c-116,-54 -217,-147 -302,-279 -124,-217 -124,-450 0,-698l140 -198c15,-23 93,-78 232,-163l0 0z"/>
   <path class="fil3" d="M9819 13448c54,-163 182,-306 384,-430 233,-147 442,-237 629,-268 186,-47 337,-35 454,35 16,140 -43,314 -174,524 -163,194 -248,291 -256,291l-279 210c-279,155 -481,229 -605,221l-151 -23 -23 -35c-78,-132 -70,-307 23,-524l0 0z"/>
   <path class="fil3" d="M10505 9770l47 151c23,116 -12,229 -105,338 -85,101 -186,171 -302,209l-47 12c-70,23 -140,8 -210,-47 -62,-31 -97,-74 -104,-128 -23,-85 0,-174 70,-268 77,-116 194,-198 349,-244l105 -35c39,-8 81,-4 128,12l69 0z"/>
   <path class="fil2" d="M10401 9677c23,23 58,54 105,93l-70 0c-47,-15 -90,-19 -128,-12l-105 35c-155,47 -271,128 -349,244 -70,93 -93,182 -70,268 7,54 42,97 104,128 70,54 140,70 210,47l-23 12c-77,16 -155,0 -233,-47 -70,-31 -112,-78 -128,-140 -47,-179 -43,-334 12,-465 -8,-23 11,-47 58,-70 46,-39 116,-74 209,-105l291 0c23,-8 62,-4 117,11l0 0z"/>
   <path class="fil2" d="M8620 13843c116,31 194,85 233,163l-128 117c-93,-31 -221,-43 -384,-35 -85,39 -178,101 -279,186 0,-78 50,-163 151,-256 241,-109 376,-167 407,-175z"/>
   <path class="fil3" d="M8189 14321c-62,15 -109,19 -139,11l12 -58c101,-85 194,-147 279,-186 163,-8 291,4 384,35l-105 70 -431 129 0 0z"/>
   <path class="fil2" d="M9237 11272c109,-31 237,8 384,116 109,77 151,171 128,279l-23 -23c-62,-39 -229,0 -501,116 -124,47 -241,105 -349,175 -117,85 -178,132 -186,139 -23,31 -50,109 -82,233 8,8 8,20 0,35 -54,-62 -74,-155 -58,-279 23,-116 109,-275 256,-477 186,-170 330,-275 431,-314z"/>
   <path class="fil3" d="M9737 11749c-23,85 -85,202 -186,349 -117,155 -280,276 -489,361 -171,47 -299,35 -384,-35 -39,-23 -62,-50 -70,-81 8,-15 8,-27 0,-35 31,-124 58,-202 82,-233 8,-8 70,-54 186,-139 108,-70 225,-128 349,-175 272,-116 438,-155 501,-116l23 23c0,46 -4,74 -12,81z"/>
   <path class="fil2" d="M12403 10329c0,15 -4,35 -12,58l-23 -70c-54,-47 -151,-81 -291,-105 -139,0 -268,43 -384,128 -7,15 -38,62 -93,140 -62,46 -105,116 -128,209 -117,233 -148,376 -93,431 16,15 58,47 128,93 86,0 148,-8 186,-23l-93 58c-31,23 -105,47 -221,70 -210,16 -361,-39 -454,-163 -47,-47 -70,-113 -70,-198 -7,-39 -4,-128 12,-268 16,-124 70,-256 163,-396l419 -337c396,-93 609,-140 640,-140 62,8 109,19 140,35 16,8 62,50 140,128 69,102 81,218 35,350l0 0z"/>
   <path class="fil3" d="M12390 10387l-70 163c-117,179 -186,279 -209,303 -78,101 -140,171 -187,210 -38,23 -116,66 -233,128 -38,16 -101,23 -186,23 -70,-47 -112,-78 -128,-93 -54,-54 -23,-198 93,-431 23,-93 66,-163 128,-209 54,-78 85,-124 93,-140 117,-85 245,-128 384,-128 140,23 237,58 291,105l24 69z"/>
   <path class="fil2" d="M10436 14286l81 -46 70 -23c23,16 62,23 116,23 93,46 144,81 151,104 39,78 58,155 58,233 -31,-62 -128,-85 -291,-70 -132,23 -244,62 -338,116 -155,77 -248,144 -279,198 -15,-62 16,-151 93,-268 116,-132 229,-221 338,-268l0 0z"/>
   <path class="fil3" d="M10284 14623c93,-54 206,-93 338,-116 163,-16 260,7 291,70 -15,39 -35,86 -58,140 -70,85 -178,163 -326,233 -70,31 -163,54 -279,70 -109,-23 -183,-70 -221,-140l-23 -58c31,-54 124,-120 279,-198l0 0z"/>
   <path class="fil2" d="M12647 11667c-70,101 -140,175 -209,221 -8,-54 -43,-97 -105,-128 -62,-23 -151,-19 -268,12l-128 47 23 -82c62,-54 109,-89 140,-105l244 0c39,0 140,12 303,35l0 0z"/>
   <path class="fil3" d="M12333 11760c62,31 97,74 105,128 -93,93 -167,147 -221,163 -62,15 -120,12 -174,-12 -62,-47 -97,-89 -104,-128 -8,-31 -8,-62 0,-93l128 -47c116,-31 205,-35 267,-12l0 0z"/>
   <path class="fil2" d="M7701 13471l-128 35c-31,-8 -70,-4 -116,12l-93 23c8,8 4,23 -12,47 -23,-23 -43,-62 -58,-116l47 -23 198 -58c47,-16 85,-20 117,-12 15,8 31,31 47,70l0 24 0 0z"/>
   <path class="fil3" d="M7456 13518c46,-16 85,-20 116,-12l128 -35c-23,62 -47,108 -70,140 -47,62 -89,93 -128,93 -23,8 -62,-16 -116,-70l-35 -47c15,-23 19,-39 12,-47l93 -23 0 0z"/>
   <path class="fil4" d="M10482 15461l46 23c16,31 35,39 58,23l47 70c47,108 78,217 93,326 -605,-85 -1342,-299 -2211,-640l-1990 -815c-23,-77 -43,-128 -58,-151 -39,-70 -70,-120 -93,-151l70 -23 23 0c15,15 46,19 93,12l47 -12c70,15 198,70 384,163 357,140 625,268 803,384 54,16 198,62 431,140l698 174c651,163 1171,322 1559,477z"/>
   <path class="fil5" d="M15219 11702c23,132 50,217 81,256 8,31 43,124 105,279 8,23 23,85 47,186 8,109 -23,186 -93,233 -46,163 -209,341 -489,535 -520,341 -1032,687 -1536,1036 -590,435 -1436,993 -2537,1676l-70 0c-15,-109 -47,-217 -93,-326l-47 -70c132,-31 431,-326 896,-884 613,-721 1299,-1583 2060,-2583 737,-985 1109,-1556 1117,-1711l70 47c39,47 77,128 117,244 54,124 101,221 139,291 47,140 101,283 163,431 38,116 62,236 69,361l0 0z"/>
  </g>
  <g id="_214786144">
   <path class="fil0" d="M15526 13749c53,89 151,311 293,667 62,249 240,711 533,1386 276,622 382,1049 320,1280 -36,0 -53,18 -53,53 -214,240 -1013,747 -2400,1520 -1476,827 -2782,1511 -3920,2053 -880,426 -1378,604 -1493,533 18,-36 26,-71 26,-107 453,-151 987,-418 1600,-800 747,-453 1574,-853 2480,-1200 969,-382 1760,-809 2373,-1280 684,-453 1058,-782 1120,-987 71,-160 9,-533 -187,-1120 -231,-614 -498,-1174 -800,-1680 -400,-675 -755,-1191 -1066,-1547 -453,-515 -773,-800 -960,-853 -471,-213 -1600,249 -3387,1387 -240,151 -933,635 -2080,1453 -480,364 -987,764 -1520,1200l-53 13 -53 -13c-18,0 -27,-13 -27,-40l0 -93c27,0 53,-31 80,-93 89,-27 462,-276 1120,-747 1422,-1022 2151,-1542 2187,-1560 2116,-1413 3476,-2004 4080,-1773 9,0 124,102 346,307 338,409 604,769 800,1080 382,532 595,852 640,959l0 0z"/>
   <path class="fil1" d="M15419 14069c302,507 569,1066 800,1680 196,587 258,960 187,1120 -62,204 -436,533 -1120,987 -613,471 -1405,898 -2373,1280 -907,347 -1733,747 -2480,1200 -613,382 -1146,649 -1600,800 -35,0 -62,14 -80,40 0,-45 -9,-76 -27,-93 -320,-818 -631,-1493 -933,-2027l-453 -813c-142,-267 -231,-458 -267,-573l-587 -1826 -53 -40 -80 -80 53 -13c533,-436 1040,-836 1520,-1200 1147,-818 1840,-1302 2080,-1453 1787,-1138 2916,-1600 3387,-1387 187,53 507,338 960,853 311,355 666,871 1066,1546l0 0zm-3333 -1013c-302,125 -524,400 -667,827 -98,249 -133,480 -106,693 0,45 18,111 53,200 98,213 294,369 587,466 107,53 240,80 400,80 80,18 231,13 453,-13 293,-107 507,-240 640,-400l160 -267c80,-347 9,-671 -213,-973 -36,-44 -151,-164 -347,-360 -71,-80 -178,-156 -320,-227 -142,-36 -249,-71 -320,-107l-320 80 0 0zm-2639 1333c-187,160 -320,382 -400,667 -27,62 -27,191 0,387 9,53 62,129 160,227l27 0 53 40c196,0 347,-31 453,-93 151,-36 267,-169 347,-400l80 -267 0 -214c-26,-44 -53,-76 -80,-93 -125,-160 -204,-249 -240,-267 -71,-27 -178,-40 -320,-40 -9,18 -36,35 -80,53l0 0zm1760 1853c-151,18 -258,107 -320,267 -44,35 -80,93 -106,173 -62,142 -45,355 53,640 124,249 294,409 507,480 169,89 320,116 453,80 35,-18 71,-27 106,-27 133,-53 240,-187 320,-400 80,-258 89,-480 27,-666 -116,-196 -258,-355 -427,-480 -275,-80 -480,-102 -613,-67zm-1707 280l133 133 133 53c125,53 231,89 320,107 53,0 107,-9 160,-27 89,0 160,-18 213,-53 26,-169 0,-320 -80,-453 -285,-36 -453,-45 -507,-27 -160,0 -267,71 -320,213l-53 53 0 0zm53 1387c-133,0 -293,53 -480,160 -142,63 -240,143 -293,240 -53,45 -124,142 -214,293 -89,329 -71,595 53,800 36,107 89,178 160,214l80 93 293 146 294 80c196,0 338,-9 426,-27 107,-35 178,-53 214,-53l53 -53c169,-71 293,-204 373,-400 53,-133 80,-231 80,-293 18,-45 9,-125 -27,-240 -18,-80 -169,-329 -453,-747l-560 -213 0 0zm-1947 -2426c-18,35 -26,111 -26,227l-27 40 53 240c9,9 62,5 160,-13 71,-26 143,-71 214,-133l0 -67c18,-36 27,-71 27,-107 0,-44 -36,-89 -107,-133 -18,0 -44,-18 -80,-53l-213 0 0 -1zm6933 227c-151,-53 -329,-67 -533,-40 -169,71 -276,151 -320,240l-27 80c-53,160 -45,302 27,427 53,116 142,196 267,240 169,71 311,80 427,27 53,0 106,-27 160,-80 125,-115 196,-231 213,-347 36,-53 36,-146 0,-280 -26,-107 -53,-174 -80,-200 0,-18 -18,-27 -53,-27l-80 -40 0 0zm-1147 1826c89,-18 204,-62 347,-133l-214 -346c-89,-89 -169,-151 -240,-187 -62,-35 -116,-22 -160,40 -36,9 -80,40 -133,93 0,35 -18,80 -53,133 -27,89 -27,178 0,267 18,53 62,116 133,187 89,0 195,-17 320,-53l0 0z"/>
   <path class="fil2" d="M13606 14642l-160 267c0,-187 -80,-396 -240,-627 -107,-142 -329,-289 -667,-440 -213,-89 -444,-67 -693,67 -258,142 -427,342 -507,600 -18,9 -27,31 -27,66 -27,-213 9,-444 106,-693 142,-427 365,-702 667,-827l320 -80c71,35 178,71 320,107 142,71 249,147 320,227 196,195 311,315 347,360 222,303 293,627 213,974l0 0z"/>
   <path class="fil3" d="M13206 14282c160,231 240,440 240,627 -133,160 -347,293 -640,400 -222,27 -373,31 -453,13 -160,0 -293,-27 -400,-80 -293,-98 -489,-253 -587,-466 -35,-89 -53,-156 -53,-200 0,-35 9,-58 27,-66 80,-258 249,-458 507,-600 249,-133 480,-156 693,-67 338,151 560,298 666,440l0 0z"/>
   <path class="fil3" d="M9872 14776l133 13c36,18 80,58 133,120l26 40 -80 267c-80,231 -196,364 -347,400 -107,62 -258,93 -453,93l-53 -40c-80,-53 -133,-129 -160,-227 0,-133 9,-222 26,-267 63,-187 160,-316 294,-387 204,-89 364,-93 480,-13l0 0z"/>
   <path class="fil2" d="M10166 14736l0 214 -26 -41c-53,-62 -98,-102 -133,-120l-133 -13c-116,-80 -275,-76 -480,13 -133,71 -231,200 -294,387 -18,44 -26,133 -26,267 26,98 80,174 160,227l-27 0c-98,-98 -151,-173 -160,-227 -27,-196 -27,-325 0,-387 80,-285 213,-507 400,-667 44,-18 71,-36 80,-53 142,0 249,13 320,40 35,18 115,107 240,267 26,18 53,49 79,93l0 0z"/>
   <path class="fil2" d="M10379 16283c80,133 106,284 80,453 -53,35 -125,53 -213,53l-294 -373c-106,-35 -240,-18 -400,53 53,-142 160,-213 320,-213 54,-17 223,-8 507,27z"/>
   <path class="fil3" d="M9499 16522l53 -53c160,-71 294,-89 400,-53l294 373c-53,18 -107,27 -160,27 -89,-18 -196,-53 -320,-107l-133 -53 -134 -134z"/>
   <path class="fil2" d="M11819 16309c169,125 311,285 427,480 63,187 53,409 -27,666 -80,214 -187,347 -320,400 0,-35 9,-62 27,-80 35,-71 -45,-311 -240,-720l-267 -373c-35,-62 -106,-133 -213,-214 -53,-26 -151,-26 -293,0l-27 40c62,-160 169,-249 320,-267 134,-35 338,-13 614,67l0 0z"/>
   <path class="fil3" d="M10912 16469c142,-26 240,-26 293,0 107,80 178,151 213,214l267 373c195,409 275,649 240,720 -18,18 -27,44 -27,80 -35,0 -71,9 -106,27 -133,35 -285,9 -453,-80 -213,-71 -382,-231 -507,-480 -98,-285 -115,-498 -53,-640 27,-80 62,-138 106,-173l26 -40 0 0z"/>
   <path class="fil2" d="M10113 18122c285,418 436,667 453,747 36,116 45,196 27,240 0,62 -27,160 -80,293 -80,196 -204,329 -373,400l-53 53 53 -133c44,-98 44,-249 0,-453 -80,-213 -187,-355 -320,-427 -18,-18 -80,-26 -187,-26 -124,35 -222,53 -293,53 -293,53 -471,156 -533,307 -18,63 -27,156 -27,280l0 27c18,35 44,111 80,227l-80 -93c-71,-35 -124,-107 -160,-214 -124,-204 -142,-471 -53,-800 89,-151 160,-249 214,-293 53,-98 151,-178 293,-240 187,-106 347,-160 480,-160l560 213 0 0z"/>
   <path class="fil3" d="M9339 18869c71,0 169,-18 293,-53 107,0 169,9 187,26 133,71 240,214 320,427 44,204 44,356 0,453l-53 133c-35,0 -107,18 -214,53 -89,18 -231,27 -426,27l-294 -80 -293 -146c-36,-116 -63,-191 -80,-227l0 -27c0,-124 9,-217 27,-280 62,-151 240,-253 533,-307l0 0z"/>
   <path class="fil2" d="M14113 15976c-169,-98 -311,-120 -427,-67 44,-89 151,-169 320,-240 204,-27 382,-13 533,40l80 40c35,0 53,9 53,27 26,26 53,93 80,200 36,133 36,227 0,280 -18,116 -89,231 -213,347 53,-124 9,-257 -133,-400 -80,-133 -178,-209 -293,-227z"/>
   <path class="fil3" d="M14113 15976c115,18 213,93 293,227 142,143 187,276 133,400 -53,53 -107,80 -160,80 -116,53 -258,44 -427,-27 -125,-44 -213,-124 -267,-240 -71,-124 -80,-267 -27,-427l27 -80c115,-53 258,-31 427,67l0 0z"/>
   <path class="fil2" d="M13739 17402c-142,71 -258,116 -347,133 26,-124 26,-222 0,-293 -53,-98 -133,-164 -240,-200 -35,-27 -89,-40 -160,-40 53,-53 98,-85 133,-93 44,-62 98,-76 160,-40 71,36 151,98 240,187l214 346z"/>
   <path class="fil3" d="M13392 17242c26,71 26,169 0,293 -125,36 -231,53 -320,53 -71,-71 -116,-133 -133,-187 -27,-89 -27,-177 0,-267 36,-53 53,-98 53,-133 71,0 124,13 160,40 107,36 187,102 240,200l0 0z"/>
   <path class="fil2" d="M7819 15483c36,35 63,53 80,53 71,45 107,89 107,133 0,35 -9,71 -27,107l0 67 -133 -120 -107 -13c-53,-45 -98,-58 -133,-40l-26 40c0,-116 9,-191 26,-227l213 0 0 0z"/>
   <path class="fil3" d="M7606 15669c36,-18 80,-5 133,40l107 13 133 120c-71,62 -142,107 -214,133 -98,18 -151,22 -160,13l-53 -240 54 -80 0 0z"/>
   <path class="fil4" d="M8726 21083c18,18 27,49 27,93 0,44 18,67 53,67l-27 133c-107,320 -169,497 -187,533 -462,-640 -924,-1573 -1387,-2800 -80,-178 -275,-720 -587,-1627 -213,-622 -364,-1031 -453,-1227 0,-98 18,-187 53,-267 0,-106 18,-213 53,-320 0,27 9,40 27,40l53 13 80 80 53 40 587 1826c35,116 124,307 267,573l453 813c303,534 614,1209 934,2027l0 0z"/>
   <path class="fil5" d="M8806 21242c116,71 613,-107 1493,-533 1138,-542 2444,-1227 3920,-2053 1387,-773 2187,-1280 2400,-1520l0 107c0,276 -27,640 -80,1093 -62,533 -124,933 -187,1200 0,107 -18,231 -53,373 -80,311 -124,480 -133,507 -35,71 -71,124 -106,160 -347,427 -1609,791 -3787,1093 -800,125 -2000,240 -3600,347l-80 -107c18,-36 80,-213 187,-533l26 -133 0 0z"/>
  </g>
  <g id="_214793776">
   <path class="fil0" d="M11125 16393l-107 0 -53 -27c-462,-604 -818,-1040 -1067,-1306 -675,-765 -1173,-1311 -1493,-1640 -1307,-1333 -2222,-2000 -2747,-2000 -240,0 -640,111 -1200,333 -578,258 -1093,533 -1547,827 -524,311 -960,635 -1307,973 -356,338 -533,582 -533,733 0,169 249,516 747,1040 471,577 1093,1120 1867,1627 667,453 1298,978 1893,1573 516,489 951,836 1307,1040l0 120c-133,0 -551,-280 -1253,-840 -1093,-889 -2116,-1760 -3067,-2613 -1102,-996 -1689,-1600 -1760,-1813l-27 -53c0,-177 231,-449 693,-813 409,-329 738,-609 987,-840 178,-204 329,-338 453,-400l933 -493c604,-320 987,-498 1147,-533 160,-80 284,-125 373,-133 684,0 1796,813 3333,2440 62,71 587,667 1573,1786 453,507 729,791 826,854l27 80 0 81 0 0z"/>
   <path class="fil1" d="M7684 17300c-124,-124 -267,-213 -427,-267l-613 0c-418,240 -640,373 -667,400 -53,53 -89,107 -107,160 -18,35 -27,115 -27,240 0,169 71,302 213,400l53 53 187 107c178,71 311,115 400,133 178,35 284,53 320,53 89,0 187,-18 293,-53l133 -27c18,0 98,-35 240,-106 195,-160 293,-347 293,-560 0,-98 -27,-187 -80,-267 -36,-71 -107,-160 -214,-266l0 0zm-586 -1200l507 0 160 -13 -27 -93c-27,-89 -107,-178 -240,-267 -267,-53 -436,-80 -507,-80 -116,53 -187,156 -214,307l320 146 0 0zm2347 -133l0 27c35,71 80,124 133,160 44,53 98,80 160,80 44,0 80,-44 107,-133l27 -80c18,-35 27,-89 27,-160l-53 -27 -240 0 -133 27c-18,18 -27,53 -27,106zm-933 -1413c0,-27 -27,-49 -80,-67 -89,-45 -178,-67 -267,-67 -107,45 -213,80 -320,107 -18,0 -62,18 -133,53 -44,98 -71,156 -80,173l0 200c0,151 71,284 213,400 142,106 276,160 400,160l80 0c98,0 178,-44 240,-133 71,-71 107,-146 107,-227 0,-240 -53,-440 -160,-600zm-3627 1400c0,178 53,298 160,360 27,36 53,53 80,53 107,53 258,80 453,80 213,0 436,-71 667,-213 160,-160 240,-311 240,-453 0,-53 -9,-98 -27,-133 -18,-106 -89,-204 -213,-293 -142,-71 -347,-107 -613,-107 -276,53 -471,116 -587,187 -107,124 -160,298 -160,520l0 0zm-1147 -307c151,89 249,133 293,133 71,0 133,-27 187,-80 53,-106 80,-177 80,-213 0,-36 -9,-71 -27,-107 -27,-62 -44,-93 -53,-93 -80,-62 -142,-93 -187,-93 -53,0 -142,31 -267,93 -125,35 -231,84 -320,146 89,89 187,160 293,213l0 0zm-480 -1653l-187 0c-27,44 -62,80 -107,106 -71,107 -107,178 -107,213 0,107 18,214 53,320l133 133c107,53 258,80 453,80 107,0 213,-27 320,-80 107,-80 160,-173 160,-280l0 -93c-27,-89 -107,-178 -240,-267 -178,-89 -338,-133 -480,-133l0 0zm3173 -1200l-267 -133c-35,-18 -142,-27 -320,-27 -133,0 -267,27 -400,80 -187,44 -329,102 -427,173 -338,133 -507,333 -507,600 0,133 9,213 27,240 62,187 222,351 480,493 18,9 84,36 200,80 89,35 164,58 227,66 178,36 311,53 400,53 347,0 587,-53 720,-160l133 -133c89,-151 133,-329 133,-534 0,-302 -134,-569 -400,-800l0 0zm4533 3573l53 27c-18,35 -53,53 -107,53l-53 0c-71,53 -195,169 -373,347 -347,320 -604,587 -773,800 -142,124 -285,231 -427,320l-720 480c-711,480 -1235,871 -1573,1173l-53 53 -53 -53c-355,-204 -791,-551 -1307,-1040 -596,-595 -1227,-1120 -1893,-1573 -773,-507 -1395,-1049 -1867,-1627 -498,-524 -747,-871 -747,-1040 0,-151 178,-396 533,-733 347,-338 782,-662 1307,-973 453,-293 969,-569 1547,-827 560,-222 960,-333 1200,-333 524,0 1440,667 2747,2000 320,329 818,876 1493,1640 249,267 604,702 1066,1306l0 0z"/>
   <path class="fil2" d="M5844 12633c178,0 285,9 320,27l267 133c267,231 400,498 400,800 0,204 -44,382 -133,534l0 -40c0,-195 -107,-396 -320,-600 -160,-160 -373,-240 -640,-240 -311,0 -569,44 -773,133 -204,80 -347,196 -427,347 -18,-27 -27,-107 -27,-240 0,-267 169,-466 507,-600 98,-71 240,-129 427,-173 134,-53 267,-80 400,-80l0 0z"/>
   <path class="fil3" d="M5018 14220c-258,-142 -418,-307 -480,-493 80,-151 222,-267 427,-347 204,-89 462,-133 773,-133 267,0 480,80 640,240 213,204 320,405 320,600l0 40 -133 133c-133,106 -373,160 -720,160 -89,0 -222,-18 -400,-53 -62,-9 -138,-31 -227,-66 -115,-45 -182,-72 -200,-80l0 0z"/>
   <path class="fil3" d="M8431 14846c107,107 160,214 160,320 0,89 -27,160 -80,213 -62,89 -133,133 -214,133l-53 0c-124,0 -258,-53 -400,-160 -142,-116 -213,-249 -213,-400l0 -200c18,-26 44,-40 80,-40 35,-35 80,-53 133,-53l133 0c178,0 329,62 454,186z"/>
   <path class="fil2" d="M8431 14486c53,18 80,40 80,67 106,160 160,360 160,600 0,80 -36,156 -107,227 -62,89 -142,133 -240,133l-20 0c77,-3 146,-47 207,-133 53,-53 80,-124 80,-213 0,-106 -53,-213 -160,-320 -124,-124 -275,-187 -453,-187l-133 0c-53,0 -98,18 -133,53 -36,0 -62,14 -80,40 9,-18 36,-76 80,-173 71,-35 116,-53 133,-53 107,-27 213,-62 320,-107 89,0 178,23 266,67l0 0z"/>
   <path class="fil2" d="M6991 15646c71,0 240,27 507,80 133,89 213,177 240,267 -178,-89 -302,-133 -373,-133 -195,53 -329,116 -400,187l-187 -93c27,-151 98,-254 214,-307l0 0z"/>
   <path class="fil3" d="M7765 16086l-667 13 -133 -53c71,-71 204,-133 400,-187 71,0 196,44 373,133l27 93 0 0z"/>
   <path class="fil2" d="M4885 15953c0,-222 53,-396 160,-520 116,-71 311,-133 587,-187 267,0 471,35 613,107 124,89 195,187 213,293l-27 -26c-142,-71 -231,-107 -267,-107 -107,35 -195,62 -267,80 -133,53 -267,133 -400,240 -302,196 -453,338 -453,427l0 53c-107,-62 -160,-182 -160,-359l0 0z"/>
   <path class="fil3" d="M5045 16260c0,-89 151,-231 453,-427 133,-106 267,-187 400,-240 71,-18 160,-45 267,-80 36,0 125,35 267,107l27 26c18,36 27,80 27,133 0,142 -80,293 -240,453 -231,142 -453,213 -667,213 -196,0 -347,-27 -453,-80 -27,0 -53,-18 -80,-53l0 -53 0 0z"/>
   <path class="fil2" d="M7258 17033c160,53 302,142 427,267 107,107 178,196 213,267 53,80 80,169 80,267 0,213 -98,400 -293,560 -142,71 -222,106 -240,106l-133 27c53,-18 116,-62 187,-133 36,-107 53,-178 53,-214 0,-107 -133,-227 -400,-360 -98,-80 -187,-120 -267,-120 -71,-35 -133,-53 -187,-53 -160,0 -302,62 -427,187 -107,133 -169,249 -187,347 0,27 9,62 27,107l-53 -53c-142,-98 -213,-231 -213,-400 0,-125 9,-204 27,-240 18,-53 53,-107 107,-160 27,-27 249,-160 667,-400l614 0 0 -1z"/>
   <path class="fil3" d="M7151 17820c267,133 400,253 400,360 0,35 -18,107 -53,214 -71,71 -133,115 -187,133 -107,35 -204,53 -293,53 -36,0 -142,-18 -320,-53 -89,-18 -222,-62 -400,-133l-187 -107c-18,-45 -27,-80 -27,-107 18,-98 80,-214 187,-347 124,-125 267,-187 427,-187 53,0 116,18 187,53 80,0 169,40 267,120l0 0z"/>
   <path class="fil2" d="M3071 13993l187 0c142,0 302,44 480,133 133,89 213,177 240,267 -107,-53 -240,-80 -400,-80 -178,27 -311,45 -400,53 -178,89 -267,178 -267,267 -35,-107 -53,-214 -53,-320 0,-35 35,-106 107,-213 44,-26 80,-62 107,-106l0 0z"/>
   <path class="fil3" d="M3578 14313c160,0 293,27 400,80l0 93c0,107 -53,200 -160,280 -107,53 -213,80 -320,80 -196,0 -347,-27 -453,-80l-133 -133c0,-89 89,-178 267,-267 89,-9 222,-26 400,-53l0 0z"/>
   <path class="fil2" d="M3445 15433c89,-62 195,-111 320,-146 125,-62 213,-93 267,-93 44,0 107,31 187,93 9,0 27,31 53,93l-160 -26c-142,0 -240,26 -293,80 -53,53 -80,124 -80,213 -107,-53 -205,-124 -293,-213l0 0z"/>
   <path class="fil3" d="M3818 15433c53,-53 151,-80 293,-80l160 26c18,36 27,71 27,107 0,36 -27,107 -80,213 -53,53 -116,80 -187,80 -44,0 -142,-44 -293,-133 0,-89 27,-160 80,-213z"/>
   <path class="fil2" d="M9445 15966c0,-53 9,-89 27,-106l133 -27 240 0 53 27c0,71 -9,124 -27,160l-27 -53 -107 0 -133 27 -160 0 0 -27z"/>
   <path class="fil3" d="M9738 15966l107 0 27 53 -27 80c-27,89 -62,133 -107,133 -62,0 -116,-27 -160,-80 -53,-36 -98,-89 -133,-160l160 0 134 -27z"/>
   <path class="fil4" d="M11018 16393l107 0 -53 240c-18,53 -27,125 -27,214 -356,302 -649,551 -880,747l-1067 1027c-889,764 -1635,1302 -2240,1613 -27,-124 -27,-275 0,-453l27 -93c35,0 53,-22 53,-67l53 -53c338,-302 862,-693 1573,-1173l720 -480c142,-89 284,-195 427,-320 169,-214 427,-480 773,-800 178,-178 302,-293 373,-347l53 0c54,-1 90,-18 108,-54z"/>
   <path class="fil5" d="M3445 18953c-1947,-818 -3040,-1449 -3280,-1893 -18,-53 -27,-107 -27,-160l27 -400c35,-106 53,-196 53,-267l267 -933c44,-178 133,-444 267,-800 18,-35 35,-62 53,-80 71,214 658,818 1760,1813 951,853 1973,1724 3067,2613 702,560 1120,840 1253,840l-27 93c-27,178 -27,329 0,453 -53,0 -80,9 -80,27 -1271,-445 -2382,-880 -3333,-1307l0 0z"/>
  </g>
  <g id="_215705400">
   <path class="fil0" d="M10240 21370l-67 -34 -17 0 -33 -33c-244,-489 -461,-883 -650,-1183 -445,-756 -756,-1267 -933,-1534 -822,-1255 -1456,-1950 -1900,-2083 -200,-56 -561,-61 -1083,-17 -511,33 -1000,111 -1467,233 -489,100 -922,228 -1300,383 -367,167 -561,300 -583,400 -22,133 117,444 417,933 289,533 706,1066 1250,1600 456,478 883,1000 1283,1567 356,489 656,839 900,1050l-33 68c-122,-33 -417,-328 -883,-883 -611,-722 -1300,-1583 -2067,-2583 -733,-989 -1106,-1556 -1117,-1700 -11,-22 -17,-39 -17,-50 33,-122 283,-267 750,-433 122,-44 450,-167 983,-367 189,-111 345,-172 467,-183l883 -133c511,-89 872,-128 1083,-117l333 -17c589,167 1361,1011 2317,2533 211,333 534,883 967,1650 278,466 455,733 533,800l17 67 -33 67 0 0z"/>
   <path class="fil4" d="M10240 21370c-22,22 -50,72 -83,150 -22,22 -45,72 -67,150l-367 150 -1617 667c-867,333 -1605,545 -2216,633 11,-111 44,-222 100,-333l33 -67c33,22 56,17 67,-17l50 -34c389,-155 906,-311 1550,-466l700 -183c233,-78 378,-122 433,-133 178,-122 444,-250 800,-383 189,-89 316,-144 383,-167l50 17c44,11 78,6 100,-17l17 0 67 34z"/>
   <path class="fil1" d="M6090 22703l-33 -50c-244,-211 -544,-561 -900,-1050 -400,-567 -828,-1089 -1283,-1567 -544,-534 -961,-1067 -1250,-1600 -300,-489 -439,-800 -417,-933 22,-100 217,-233 583,-400 378,-156 811,-283 1300,-383 467,-122 956,-200 1467,-233 522,-44 883,-39 1083,17 444,133 1078,828 1900,2083 178,267 489,778 933,1534 189,300 406,694 650,1183l33 33c-22,22 -56,28 -100,17l-50 -17c-67,22 -194,78 -383,167 -356,133 -622,261 -800,383 -56,11 -200,56 -433,133l-700 183c-644,156 -1161,311 -1550,466l-50 34zm-1867 -5100l67 167c122,178 194,278 217,300 78,100 139,167 183,200 44,33 122,78 233,133l100 67c22,22 94,45 217,67 211,11 361,-45 450,-167 44,-45 67,-111 67,-200 11,-33 11,-122 0,-267 -22,-122 -78,-256 -167,-400l-417 -333c-400,-89 -617,-133 -650,-133 -56,0 -100,11 -133,33l-133 133c-78,100 -89,217 -33,350l0 51 0 0zm1883 -617l-33 150c-33,122 0,233 100,333 78,100 178,172 300,217l50 17c22,7 45,10 67,8 62,4 123,-15 183,-58 67,-22 111,-67 133,-133 45,-178 39,-333 -17,-467 11,-22 -6,-44 -50,-67 -55,-44 -128,-78 -216,-100l-283 0c-33,-11 -72,-11 -117,0 -22,22 -61,56 -117,100zm767 1900l0 83c33,78 100,194 200,350 111,156 272,272 483,350 167,45 294,34 383,-33 34,-22 56,-50 67,-83 56,-56 78,-145 67,-267 -22,-122 -111,-284 -267,-483 -178,-167 -322,-272 -433,-317 -100,-33 -228,6 -383,117 -100,78 -139,172 -116,283l0 0zm-1533 1117c-22,133 33,306 167,517l250 300 283 200c278,155 478,233 600,233l167 -33c111,-56 211,-150 300,-283 122,-211 122,-439 0,-684l-150 -200c-11,-22 -89,-78 -233,-167 -111,-67 -217,-111 -317,-133 -122,-44 -250,-72 -383,-83 -322,-55 -528,0 -617,167 -44,67 -67,122 -67,167l0 0zm367 1783c11,44 28,94 50,150 78,78 189,155 333,233 67,34 161,56 284,67 100,-22 172,-67 216,-133l17 -67c22,-67 -6,-156 -83,-267 -122,-133 -233,-222 -333,-267l-83 -50 -83 -17c-22,11 -61,17 -117,17 -89,44 -139,78 -150,100 -33,78 -50,156 -50,233l0 0zm3217 -1100c22,66 45,111 67,133 45,67 83,100 117,100 34,11 72,-11 117,-66l50 -50c22,-22 39,-61 50,-117l-250 -83c-45,-11 -83,-17 -117,-17 -11,11 -22,39 -34,83l0 17 0 0zm-367 800c0,-78 -50,-161 -150,-250 -244,-111 -383,-172 -417,-183 -111,33 -189,89 -233,167l133 117 100 67 433 133c67,11 117,17 150,17l-17 -67 0 0zm-4383 -2383c100,89 178,144 233,167 56,11 111,6 167,-17 67,-44 100,-89 100,-133 11,-22 11,-50 0,-83l-17 -83c-67,-56 -111,-89 -133,-100l-250 0c-33,0 -133,11 -300,33 67,100 133,172 200,217z"/>
   <path class="fil2" d="M4223 17603l0 -50c-56,-133 -44,-250 33,-350l133 -133c33,-22 78,-33 133,-33 33,0 250,44 650,133l417 333c89,144 145,278 167,400 11,145 11,233 0,267 0,89 -22,156 -67,200 -89,122 -239,178 -450,167 -122,-22 -194,-45 -217,-67l-100 -67c44,22 106,34 183,34 78,-56 122,-89 133,-100 56,-55 22,-200 -100,-433 -22,-89 -61,-156 -117,-200 -56,-78 -89,-128 -100,-150 -111,-78 -239,-117 -383,-117 -144,22 -239,56 -283,100l-33 66 0 0zm2367 108c45,-2 89,-21 133,-58 67,-33 105,-78 117,-133 22,-89 -6,-178 -83,-267 -78,-111 -194,-194 -350,-250l-100 -33c-34,0 -72,6 -117,17l-83 0c56,-44 95,-78 117,-100 44,-11 83,-11 117,0l284 0c89,22 161,56 216,100 45,22 61,44 50,67 55,133 61,289 17,467 -22,67 -67,111 -133,133 -60,43 -121,62 -183,58zm1417 1842c-11,-11 -11,-22 0,-33 -33,-122 -61,-200 -83,-233l-183 -133c-111,-67 -228,-128 -350,-183 -267,-111 -433,-150 -500,-117l-17 33c-22,-111 17,-205 117,-283 156,-111 283,-150 383,-117 111,45 256,150 433,317 156,200 244,361 267,483 11,122 -11,211 -67,267l0 0zm-1200 1667l17 -33c78,-133 72,-306 -17,-517 -56,-167 -189,-311 -400,-433 -222,-145 -428,-233 -617,-267 -189,-45 -339,-33 -450,33 0,-44 22,-100 67,-167 89,-167 294,-222 617,-167 133,11 261,39 383,83 100,22 205,67 317,133 145,89 222,145 233,167l150 200c122,244 122,472 0,684 -89,133 -189,228 -300,283l0 0zm-200 817c-22,-56 -111,-122 -267,-200 -100,-55 -217,-94 -350,-117 -156,-11 -250,11 -283,67 0,-78 17,-156 50,-233 11,-22 61,-56 150,-100 56,0 94,-6 117,-17l83 17 83 50c100,45 211,133 333,267 78,111 106,200 83,267l0 0zm2667 -1233c-22,-22 -28,-39 -17,-50l-100 -17c-45,-22 -83,-28 -117,-17l-117 -33 0 -17c11,-44 22,-72 34,-83 33,0 72,6 117,17l250 83c-11,55 -28,94 -50,116l0 0zm-717 683c-100,-78 -195,-139 -284,-183 -155,-11 -283,0 -383,33l-133 -117c45,-78 122,-133 233,-167 33,11 172,72 417,183 100,89 150,172 150,250l0 0zm-4383 -2383c-67,-45 -133,-117 -200,-217 167,-22 267,-33 300,-33l250 0c22,11 67,44 133,100l17 83 -117 -50c-122,-33 -211,-39 -267,-17 -67,33 -106,78 -117,133l0 0z"/>
   <path class="fil3" d="M4923 18403c-111,-55 -189,-100 -233,-133 -44,-34 -106,-100 -183,-200 -22,-22 -94,-122 -217,-300l-67 -167 33 -67c44,-44 139,-78 283,-100 145,0 272,39 383,117 11,22 44,72 100,150 56,44 94,111 117,200 122,233 155,378 100,433 -11,11 -56,45 -133,100 -78,-1 -139,-12 -183,-34l0 0zm1667 -692c-22,2 -44,-1 -67,-8l-50 -17c-122,-44 -222,-117 -300,-217 -100,-100 -133,-211 -100,-333l33 -150 83 0c45,-11 83,-17 117,-17l100 33c156,56 272,139 350,250 78,89 105,178 83,267 -11,56 -50,100 -117,133 -45,37 -89,56 -134,58l0 0zm1417 1842c-11,33 -33,61 -67,83 -89,67 -216,78 -383,33 -211,-78 -372,-194 -483,-350 -100,-156 -167,-272 -200,-350l0 -83 17 -33c67,-34 233,6 500,117 122,56 239,117 350,183l183 133c22,33 50,111 83,233 -11,11 -11,22 0,33l0 0zm-1200 1667l-167 33c-122,0 -322,-78 -600,-233l-283 -200 -250 -300c-133,-211 -189,-383 -167,-517 111,-66 261,-78 450,-33 189,33 394,122 617,267 211,122 344,267 400,433 89,211 94,384 17,517l-17 33zm-200 817l-17 67c-44,66 -117,111 -216,133 -122,-11 -217,-33 -284,-67 -144,-78 -256,-155 -333,-233 -22,-56 -39,-106 -50,-150 33,-56 128,-78 283,-67 133,22 250,61 350,117 156,78 244,144 267,200zm2667 -1233l-50 50c-45,55 -83,78 -117,66 -33,0 -72,-33 -117,-100 -22,-22 -45,-67 -67,-133l117 33c33,-11 72,-6 117,17l100 17c-11,11 -6,28 17,50zm-5100 -1700c11,-56 50,-100 117,-133 56,-22 145,-17 267,17l117 50c11,33 11,61 0,83 0,44 -33,89 -100,133 -56,22 -111,28 -167,17 -56,-22 -133,-78 -233,-167l0 0zm4383 2383l17 67c-33,0 -83,-6 -150,-17l-433 -133 -100 -67c100,-33 228,-44 383,-33 89,45 184,105 284,183l0 0z"/>
   <path class="fil5" d="M5890 23120l-67 0c-1100,-678 -1944,-1239 -2533,-1683 -511,-345 -1028,-689 -1550,-1034 -278,-189 -439,-367 -483,-533 -25,-17 -44,-39 -58,-67 -24,-41 -32,-97 -25,-167 22,-100 33,-161 33,-183 67,-156 106,-250 117,-284 22,-33 50,-117 83,-250 0,-122 22,-244 67,-367 56,-145 105,-289 150,-433 44,-67 94,-161 150,-284 33,-122 72,-205 117,-250l67 -33c11,144 383,711 1117,1700 767,1000 1456,1861 2067,2583 467,556 761,850 883,883l-33 67c-56,112 -89,223 -100,334l0 0z"/>
   <path class="fil6" d="M9723 21820c-185,129 -413,273 -683,433 -222,122 -497,277 -825,467 -328,191 -734,385 -1216,583 -483,198 -841,259 -1075,183 -232,-77 -421,-164 -567,-258 -148,-94 -462,-305 -942,-633 -480,-329 -874,-609 -1183,-842 -307,-233 -682,-538 -1125,-917 -611,-533 -917,-861 -917,-983 0,-17 3,-34 8,-50 14,28 34,50 58,67 44,167 206,344 483,533 522,344 1039,689 1550,1034 589,444 1433,1006 2533,1683l67 0c611,-89 1350,-300 2216,-633l1617 -668 0 0z"/>
  </g>
  <path class="fil7" d="M7532 15108l0 2713c0,793 644,1437 1437,1437 793,0 1437,-644 1437,-1437l0 -3812c0,-793 -644,-1437 -1437,-1437 -793,0 -1437,644 -1437,1437l0 22 655 0c53,0 96,43 96,96l0 0 0 23c0,53 -43,96 -96,96l-655 0 0 215 655 0c53,0 96,43 96,96l0 0 0 23c0,53 -43,96 -96,96l-655 0 0 215 655 0c53,0 96,43 96,96l0 0 0 23c0,53 -43,96 -96,96l-655 0zm1545 5652l0 -1080c453,-26 884,-219 1209,-543 350,-347 546,-824 546,-1316l0 -802c0,-74 -60,-135 -135,-135l0 0c-74,0 -135,60 -135,135l0 802c0,422 -169,828 -467,1126 -298,298 -704,467 -1126,467 -422,0 -828,-169 -1126,-467 -298,-298 -467,-705 -467,-1126l0 -802c0,-74 -60,-135 -135,-135l0 0c-74,0 -135,60 -135,135l0 802c0,493 196,969 546,1316 324,324 755,517 1209,543l0 1080 -483 0c-53,0 -96,43 -96,96l0 23c0,53 43,96 96,96l1180 0c53,0 96,-43 96,-96l0 -23c0,-53 -43,-96 -96,-96l-483 0z"/>
 </g>
</svg>
