<?xml version="1.0" encoding="UTF-8"?>
<!DOCTYPE svg PUBLIC "-//W3C//DTD SVG 1.1//EN" "http://www.w3.org/Graphics/SVG/1.1/DTD/svg11.dtd">
<!-- Creator: CorelDRAW Home & Student X6 -->
<svg xmlns="http://www.w3.org/2000/svg" xml:space="preserve" width="210mm" height="297mm" version="1.1" style="shape-rendering:geometricPrecision; text-rendering:geometricPrecision; image-rendering:optimizeQuality; fill-rule:evenodd; clip-rule:evenodd"
viewBox="0 0 21000 29700"
 xmlns:xlink="http://www.w3.org/1999/xlink"
 enable-background="new 0 0 63 45.75">
 <defs>
  <style type="text/css">
   <![CDATA[
    .str0 {stroke:black;stroke-width:25}
   ]]>
  </style>
   <pattern id="id0" patternUnits="userSpaceOnUse" patternTransform="matrix(1 0 0 1 9356.13 10207.8)" x="0" y="0" width="10000" height="7500" viewBox="-42050 -26539 108787 81590">
    <image x="0" y="0" width="10000" height="7500" xlink:href="sermajk2_Images\sermajk2_ImgID1.png"/>
   </pattern>
 </defs>
 <g id="Warstwa_x0020_1">
  <metadata id="CorelCorpID_0Corel-Layer"/>
  <path class="str0" style="fill:url(#id0)" d="M10907 12590l0 2713c0,793 644,1437 1437,1437 793,0 1437,-644 1437,-1437l0 -3812c0,-793 -644,-1437 -1437,-1437 -793,0 -1437,644 -1437,1437l0 22 655 0c53,0 96,43 96,96l0 0 0 23c0,53 -43,96 -96,96l-655 0 0 215 655 0c53,0 96,43 96,96l0 0 0 23c0,53 -43,96 -96,96l-655 0 0 215 655 0c53,0 96,43 96,96l0 0 0 23c0,53 -43,96 -96,96l-655 0zm1545 5652l0 -1080c453,-26 884,-219 1209,-543 350,-347 546,-824 546,-1316l0 -802c0,-74 -60,-135 -135,-135l0 0c-74,0 -135,60 -135,135l0 802c0,422 -169,828 -467,1126 -298,298 -704,467 -1126,467 -422,0 -828,-169 -1126,-467 -298,-298 -467,-705 -467,-1126l0 -802c0,-74 -60,-135 -135,-135l0 0c-74,0 -135,60 -135,135l0 802c0,493 196,969 546,1316 324,324 755,517 1209,543l0 1080 -483 0c-53,0 -96,43 -96,96l0 23c0,53 43,96 96,96l1180 0c53,0 96,-43 96,-96l0 -23c0,-53 -43,-96 -96,-96l-483 0z"/>
 </g>
</svg>
